<?xml version="1.0" standalone="no"?><!DOCTYPE svg PUBLIC "-//W3C//DTD SVG 1.1//EN" "http://www.w3.org/Graphics/SVG/1.1/DTD/svg11.dtd"><svg t="1539424122740" class="icon" style="" viewBox="0 0 1024 1024" version="1.1" xmlns="http://www.w3.org/2000/svg" p-id="9846" xmlns:xlink="http://www.w3.org/1999/xlink" width="200" height="200"><defs><style type="text/css"></style></defs><path d="M921.6 102.4H102.4C46.08 102.4 0 148.48 0 204.8v532.48c0 56.32 46.08 102.4 102.4 102.4h482.816c-11.264-15.872-20.992-32.768-28.16-51.2H102.4c-28.16 0-51.2-23.04-51.2-51.2V204.8c0-28.16 23.04-51.2 51.2-51.2h819.2c28.16 0 51.2 23.04 51.2 51.2v303.616c20.992 20.48 38.4 44.544 51.2 71.168V204.8c0-56.32-46.08-102.4-102.4-102.4z" p-id="9847" fill="#888888"></path><path d="M307.2 343.04m-25.6 0a25.6 25.6 0 1 0 51.2 0 25.6 25.6 0 1 0-51.2 0Z" p-id="9848" fill="#888888"></path><path d="M716.8 368.64c13.824 0 25.6-11.264 25.6-25.6s-11.264-25.6-25.6-25.6H409.6c-14.336 0-25.6 11.264-25.6 25.6s11.264 25.6 25.6 25.6h307.2z" p-id="9849" fill="#888888"></path><path d="M153.6 471.04m-25.6 0a25.6 25.6 0 1 0 51.2 0 25.6 25.6 0 1 0-51.2 0Z" p-id="9850" fill="#888888"></path><path d="M588.8 471.04c0-14.336-11.264-25.6-25.6-25.6H256c-14.336 0-25.6 11.264-25.6 25.6s11.264 25.6 25.6 25.6h307.2c14.336 0 25.6-11.264 25.6-25.6z" p-id="9851" fill="#888888"></path><path d="M384 599.04m-25.6 0a25.6 25.6 0 1 0 51.2 0 25.6 25.6 0 1 0-51.2 0Z" p-id="9852" fill="#888888"></path><path d="M793.6 460.8c-83.968 0-157.696 45.056-198.144 112.64H486.4c-14.336 0-25.6 11.264-25.6 25.6s11.264 25.6 25.6 25.6h86.528c-6.144 20.992-9.728 43.52-9.728 66.56 0 126.976 103.424 230.4 230.4 230.4s230.4-103.424 230.4-230.4-103.424-230.4-230.4-230.4z m0 409.6c-98.816 0-179.2-80.384-179.2-179.2s80.384-179.2 179.2-179.2 179.2 80.384 179.2 179.2-80.384 179.2-179.2 179.2z" p-id="9853" fill="#888888"></path><path d="M875.008 606.72l-108.544 113.664-53.76-56.832c-9.728-10.24-26.112-10.752-36.352-1.024-10.24 9.728-10.752 26.112-1.024 36.352l72.704 75.776c4.608 5.12 11.776 7.68 18.432 7.68s13.824-3.072 18.432-7.68l126.976-133.12c9.728-10.24 9.216-26.624-1.024-36.352-10.24-8.704-26.112-8.192-35.84 1.536z" p-id="9854" fill="#888888"></path></svg>