<svg width="490" height="487" xmlns="http://www.w3.org/2000/svg" class="icon">
 <defs>
  <style type="text/css"/>
 </defs>
 <g>
  <title>background</title>
  <rect height="489" width="492" y="-1" x="-1" fill="none" id="canvas_background"/>
 </g>
 <g>
  <title>Layer 1</title>
  <path d="m465.028778,3l-188.962097,0c-10.649597,0 -19.319458,8.669861 -19.319458,19.319458c0,10.649628 8.669861,19.319489 19.319458,19.319489l146.773315,0l-161.723694,161.791992c-7.236328,7.236267 -7.236328,18.978119 0,26.214417c7.236267,7.236237 18.978088,7.236237 26.214355,0l162.884277,-162.952545l0,149.094391c0,10.649597 8.669861,19.319489 19.319458,19.319489c10.649597,0 19.319458,-8.669891 19.319458,-19.319489l0,-193.399475c0.068298,-14.60907 -8.328491,-19.387726 -23.825073,-19.387726zm0,0m-438.0672,483.805847l188.962097,0c10.649597,0 19.319519,-8.669861 19.319519,-19.319458c0,-10.649597 -8.669922,-19.319458 -19.319519,-19.319458l-146.909821,0l161.723724,-161.723755c7.236267,-7.236267 7.236267,-18.978149 0,-26.214417c-7.236267,-7.236267 -18.978088,-7.236267 -26.214417,0l-162.884216,162.952515l0,-149.162598c0,-10.649597 -8.669891,-19.319458 -19.319489,-19.319458c-10.649597,0 -19.319458,8.669861 -19.319458,19.319458l0,193.467712c0,12.424561 9.693848,19.319458 23.961609,19.319458l-0.000031,0zm438.0672,-483.805847" fill="#888888" id="svg_1"/>
 </g>
</svg>